<svg xmlns="http://www.w3.org/2000/svg" width="36" height="36" fill="none" viewBox="0 0 36 36">
  <path fill="#404040" d="M0 5a5 5 0 0 1 5-5h26a5 5 0 0 1 5 5v26a5 5 0 0 1-5 5H5a5 5 0 0 1-5-5V5Z"/>
  <path fill="#D1D5DB" fill-rule="evenodd" d="M11.151 10.688h4.053a.86.86 0 0 1 .648.294l.69.79a.86.86 0 0 0 .648.294h5.717a.86.86 0 0 1 .86.86v1.979c0 .47-.525.768-.967.61a5.161 5.161 0 0 0-6.811 5.814c.076.41-.215.828-.632.828h-4.493a.86.86 0 0 1-.86-.86v-9.443a.86.86 0 0 1 .232-.587l.287-.307a.86.86 0 0 1 .628-.273Z" clip-rule="evenodd"/>
  <path fill="#D1D5DB" fill-rule="evenodd" d="M21.062 17.795a2.58 2.58 0 1 1 0 5.161 2.58 2.58 0 0 1 0-5.16Zm0-1.29a3.87 3.87 0 0 1 3.155 6.114l1.328 1.329a.645.645 0 1 1-.912.912l-1.329-1.328a3.87 3.87 0 1 1-2.242-7.026Z" clip-rule="evenodd"/>
</svg>
