<svg xmlns="http://www.w3.org/2000/svg" width="36" height="36" fill="none" viewBox="0 0 36 36">
  <path fill="#262626" d="M0 5a5 5 0 0 1 5-5h26a5 5 0 0 1 5 5v26a5 5 0 0 1-5 5H5a5 5 0 0 1-5-5V5Z"/>
  <g clip-path="url(#a)">
    <path fill="#9CA3AF" d="m12.204 12.453 4.504 6.15a.997.997 0 0 1 .193.59v4.932c0 .481.368.875.826.875h.553c.45 0 .827-.394.827-.875v-4.94a1 1 0 0 1 .192-.591c.862-1.178 4.326-5.914 4.512-6.159.213-.28.188-.56.188-.56 0-.481-.368-.875-.826-.875H12.826c-.499 0-.826.42-.826.875 0 .175.05.385.204.578Z"/>
  </g>
  <defs>
    <clipPath id="a">
      <rect width="24" height="24" x="6" y="6" fill="#fff" rx="5"/>
    </clipPath>
  </defs>
</svg>
